<svg
  width="64px"
  height="64px"
  viewBox="0 0 24 24"
  fill="none"
  xmlns="http://www.w3.org/2000/svg">
  <path
    d="M12 2C9.24 2 7 4.24 7 7C7 9.5 8.5 11.5 10.68 12.18C10.91 12.25 11 12.5 11 12.72V16.31C11 17.07 10.41 17.81 9.66 18H8C8 19.1 8.9 20 10 20H14C15.1 20 16 19.1 16 18H14.34C13.59 17.81 13 17.07 13 16.31V12.72C13 12.5 13.09 12.25 13.32 12.18C15.5 11.5 17 9.5 17 7C17 4.24 14.76 2 12 2ZM12 4C13.65 4 15 5.35 15 7C15 8.61 13.9 10 12.5 10H11.5C10.1 10 9 8.61 9 7C9 5.35 10.35 4 12 4ZM10 18H14V19H10V18Z"
    fill="#FFF"/>
  </svg>
  
